<svg xmlns="http://www.w3.org/2000/svg" version="1.1" xmlns:xlink="http://www.w3.org/1999/xlink" xmlns:svgjs="http://svgjs.dev/svgjs" width="100%" height="100%" viewBox="0 0 1000 600"><rect width="1000" height="600" x="0" y="0" fill="#fff748"/><g><circle r="166.66666666666666" cx="348.4839731852213" cy="370.7062057329031" fill="#3c1a5b" transform="matrix(0.6875032520448019,0,0,0.6875032520448019,0,45.13827355499268)"/><path d="M286.8138216787238 445.7061982046904L286.8138216787238 445.7061982046904Q263.45434396306393 445.7061982046904 246.09256998520854 437.0396597892982Q228.75949315442404 428.34442422683503 219.14594888569422 411.81486751403395Q209.5324046169644 395.28531080123287 209.5324046169644 372.15541026213964L209.5324046169644 372.15541026213964Q209.5324046169644 348.9968125759756 219.14594888569422 331.86461577468685Q228.75949315442404 314.7037218263273 246.2073585734919 305.20496614588086Q263.65522399255974 295.70621046543437 287.2155817377155 295.70621046543437L287.2155817377155 295.70621046543437Q295.0786000351244 295.70621046543437 303.9460184800125 296.82539920119694Q312.8421340719714 297.97328508403035 319.2415978687677 299.83859964363467L319.2415978687677 299.83859964363467Q323.17310701747215 300.87169693818475 326.4732789306182 301.7039142032389Q329.7734508437643 302.5074343212223 333.1023199039811 302.5074343212223L333.1023199039811 302.5074343212223Q335.570274552073 302.5074343212223 338.0382292001648 301.9047942327348L338.0382292001648 301.9047942327348Q338.46868640622733 311.0017898541896 338.87044646521906 320.7014255641319Q339.3009036712815 330.4010612740742 340.10442378926496 340.9616113961416L340.10442378926496 340.9616113961416Q335.7711545815688 341.56425148462915 332.87274272741445 341.36337145513335L332.87274272741445 341.36337145513335Q328.7403535492142 322.36586009424036 317.8067405152259 313.1540758845023Q306.8444303341669 303.9709888218349 288.67913623832806 303.9709888218349L288.67913623832806 303.9709888218349Q274.21577411462715 303.9709888218349 263.970892610339 309.2225667357978Q253.75470825312158 314.5028417968315 247.4413358975378 323.59983741828626Q241.15666068902487 332.69683303974114 238.2582488348705 344.57745192706693Q235.35983698071615 356.4580708143927 235.35983698071615 369.88833564354366L235.35983698071615 369.88833564354366Q235.35983698071615 389.5171842399949 241.3575407185207 404.58318645218344Q247.3552444563253 419.6778858114428 259.6376234026428 428.25833278562254Q271.92000234896034 436.81008261273143 290.5157536508616 436.81008261273143L290.5157536508616 436.81008261273143Q296.3125773591703 436.81008261273143 303.3433783915249 435.69089387696897Q310.3741794238796 434.54300799413545 316.7736432206758 432.07505334604366L316.7736432206758 432.07505334604366L316.7736432206758 406.0467409527961Q316.7736432206758 399.6185800089289 316.25709457340076 396.0027394780037Q315.7405459261257 392.3868989470785 313.55956274874234 390.7511615640409Q311.40727671842967 389.08672703393245 306.75833889295427 388.3692983571615Q302.109401067479 387.65186968039063 294.0455027405743 387.02053244483227L294.0455027405743 387.02053244483227Q293.41416550501594 383.7203605316862 294.0455027405743 380.4201886185401L294.0455027405743 380.4201886185401Q298.37877194827047 380.4201886185401 304.5773557155709 380.5062800597526Q310.7759394828713 380.62106864803604 317.08931183845505 380.73585723631936Q323.37398704696795 380.82194867753185 327.5063762251682 380.82194867753185L327.5063762251682 380.82194867753185Q333.90584002196454 380.82194867753185 342.28540696664845 380.62106864803604Q350.66497391133225 380.4201886185401 356.63398050206604 380.4201886185401L356.63398050206604 380.4201886185401Q357.0644377081286 383.5194805021904 356.63398050206604 386.81965241533646L356.63398050206604 386.81965241533646Q348.16832211616963 387.85274970988655 344.46639014403183 388.8858470044365Q340.7357610248233 389.9189442989866 339.90354375976904 393.0182361826369Q339.07132649471487 396.11752806628704 339.07132649471487 403.55008915763335L339.07132649471487 403.55008915763335L339.07132649471487 410.1791301309963Q339.07132649471487 419.8787658409386 339.5878751419899 426.4791096672308Q340.10442378926496 433.10815064059375 340.5348809953274 436.0065624947481L340.5348809953274 436.0065624947481Q311.8090367774214 445.7061982046904 286.8138216787238 445.7061982046904ZM368.83026800717107 442.80778635053605L368.83026800717107 442.80778635053605Q368.42850794817934 439.7084944668859 368.83026800717107 436.207442524244L368.83026800717107 436.207442524244Q378.5586008641842 435.1743452296938 382.69099004238444 434.2273393763563Q386.8233792205847 433.30903067008956 387.8564765151348 430.0949501981561Q388.88957380968486 426.90956687329333 388.88957380968486 419.6778858114428L388.88957380968486 419.6778858114428L388.88957380968486 323.59983741828626Q388.88957380968486 314.9046018558232 387.8564765151348 311.2026698836854Q386.8233792205847 307.47204076447684 382.5762014541011 306.35285202871427Q378.32902368761756 305.20496614588086 368.83026800717107 304.37274888082663L368.83026800717107 304.37274888082663Q368.42850794817934 301.2734569971764 368.83026800717107 297.7724050545345L368.83026800717107 297.7724050545345Q373.1635372148671 297.7724050545345 379.07514951145924 297.85849649574703Q384.95806466098054 297.97328508403035 390.7261912222183 298.0880736723137Q396.5230149305271 298.1741651135262 400.2536440497357 298.1741651135262L400.2536440497357 298.1741651135262Q404.15645605136933 298.1741651135262 410.06806834796134 298.0880736723137Q415.9509834974825 297.97328508403035 422.0347786764996 297.85849649574703Q428.14727100258756 297.7724050545345 432.05008300422116 297.7724050545345L432.05008300422116 297.7724050545345Q432.6814202397795 300.87169693818475 432.05008300422116 304.37274888082663L432.05008300422116 304.37274888082663Q422.35044729427887 305.20496614588086 418.0171780865827 306.2380634404309Q413.68390887888654 307.271160734981 412.65081158433645 310.3704526186312Q411.6177142897865 313.4697445022814 411.6177142897865 320.90230559362783L411.6177142897865 320.90230559362783L411.6177142897865 416.9803539867843Q411.6177142897865 424.011155019139 411.70380573099897 428.25833278562254Q411.8185943192823 432.4768134050354 412.0194743487781 433.9403679056479L412.0194743487781 433.9403679056479L441.34795865517185 433.9403679056479Q458.5088526035313 433.9403679056479 466.7736309599319 426.27822963773497L466.7736309599319 426.27822963773497Q473.6035519627907 419.6778858114428 481.036113054137 403.14832909864174L481.036113054137 403.14832909864174Q484.33628496728306 402.5169918630834 487.43557685093333 403.14832909864174L487.43557685093333 403.14832909864174Q484.9676222028414 415.7463766627384 483.4179762610164 425.7616809904599Q481.8683303191913 435.77698531818146 480.8352330246412 442.60690632104024L480.8352330246412 442.60690632104024Q460.7759272221273 442.60690632104024 440.8314100078968 442.4921177327569Q420.91558994073705 442.4060262915443 400.85628413822315 442.4060262915443L400.85628413822315 442.4060262915443Q396.9247749895188 442.4060262915443 390.95576839878504 442.4921177327569Q384.95806466098054 442.60690632104024 378.9603609231759 442.72169490932356Q372.9626571853713 442.80778635053605 368.83026800717107 442.80778635053605Z " fill="#fff748" transform="matrix(0.6875032520448019,0,0,0.6875032520448019,0,45.13827355499268)"/><path d="M598.6474347043253 405.8471257992246L598.6474347043253 405.8471257992246Q598.3205423695665 403.49350098896196 598.6474347043253 400.83477666625777L598.6474347043253 400.83477666625777Q606.0134086475549 400.0502350628368 609.1515750612385 399.3310719263676Q612.2897414749222 398.63370161221565 613.0742830783431 396.192905512684Q613.8588246817641 393.77390223546945 613.8588246817641 388.28211101152306L613.8588246817641 388.28211101152306L613.8588246817641 315.31974189337825Q613.8588246817641 308.71651673125217 613.0742830783431 305.9052426523272Q612.2897414749222 303.07217575108507 609.0644037719695 302.2222556807124Q605.8608588913343 301.3505427880225 598.6474347043253 300.7185509408223L598.6474347043253 300.7185509408223Q598.3205423695665 298.3649261305596 598.6474347043253 295.70620180785534L598.6474347043253 295.70620180785534Q601.9381508742296 295.70620180785534 606.4056794492654 295.7715802748071Q610.8732080243011 295.8587515640761 615.2753581323851 295.9459228533451Q619.6557154181519 296.01130132029687 622.4887823193941 296.01130132029687L622.4887823193941 296.01130132029687Q625.4743989768571 296.01130132029687 629.9419275518927 295.9459228533451Q634.4094561269285 295.8587515640761 639.0513272805023 295.7715802748071Q643.6714056117588 295.70620180785534 646.6570222692217 295.70620180785534L646.6570222692217 295.70620180785534Q647.1146715378839 298.0598266181181 646.6570222692217 300.7185509408223L646.6570222692217 300.7185509408223Q639.2692555036748 301.3505427880225 635.9785393337703 302.1350843914434Q632.687823163866 302.9196259948643 631.9032815604451 305.2732508051271Q631.1187399570241 307.6268756153898 631.1187399570241 313.2712165955569L631.1187399570241 313.2712165955569L631.1187399570241 386.2335857137018Q631.1187399570241 391.57282718142744 631.2059112462931 394.79816488438007Q631.2712897132449 398.00170976501556 631.4238394694656 399.1131437031951L631.4238394694656 399.1131437031951L653.7178967000099 399.1131437031951Q666.7282116234067 399.1131437031951 673.004544450774 393.29446014449L673.004544450774 393.29446014449Q678.1912361622789 388.28211101152306 683.835577142446 375.72944535678846L683.835577142446 375.72944535678846Q686.3417517089295 375.250003265809 688.6953765191922 375.72944535678846L688.6953765191922 375.72944535678846Q686.8211937999089 385.2964943540602 685.6443813947775 392.9021893427796Q684.4675689896461 400.507884331499 683.6830273862253 405.69457604300396L683.6830273862253 405.69457604300396Q668.4716374087865 405.69457604300396 653.3256258982993 405.60740475373495Q638.1796143878124 405.5420262867832 622.9682244103735 405.5420262867832L622.9682244103735 405.5420262867832Q619.9826077529107 405.5420262867832 615.4279078886059 405.60740475373495Q610.8732080243011 405.69457604300396 606.3185081599964 405.78174733227286Q601.7856011180089 405.8471257992246 598.6474347043253 405.8471257992246ZM749.8896215860234 407.2636592498458L749.8896215860234 407.2636592498458Q739.5380309853308 407.2636592498458 736.8793066626267 396.9120686491532L736.8793066626267 396.9120686491532Q725.7431744585131 407.5687587622872 714.1276001634201 407.5687587622872L714.1276001634201 407.5687587622872Q706.1296343729903 407.5687587622872 700.5506718597749 402.79613067481Q694.9717093465595 398.00170976501556 694.9717093465595 389.5243018836062L694.9717093465595 389.5243018836062Q694.9717093465595 368.821120682221 737.184406175068 363.4818792144954L737.184406175068 363.4818792144954Q737.184406175068 359.7117209536116 737.271577464337 355.789012936507Q737.3369559312889 351.8663049194024 737.3369559312889 347.48594763363565L737.3369559312889 347.48594763363565Q737.3369559312889 341.99415640968925 733.3488694472326 338.9213684629574Q729.3389901408589 335.87037333854266 723.6946491606918 335.87037333854266L723.6946491606918 335.87037333854266Q719.6193913873665 335.87037333854266 716.7863244861244 337.13435703294306L716.7863244861244 337.13435703294306Q716.7863244861244 340.73017271528886 715.2172412792825 344.5003309761727Q713.6481580724408 348.2704892370565 710.9022624604675 350.86383509280904Q708.1563668484944 353.4353881262442 704.2336588313897 353.4353881262442L704.2336588313897 353.4353881262442Q700.7903929052645 353.4353881262442 698.8290388967123 351.474034117692Q696.86768488816 349.51268010913964 696.86768488816 346.7014060302147L696.86768488816 346.7014060302147Q696.86768488816 342.93124776933087 700.3981221035542 339.5533603101575Q703.9285593189484 336.1754728509842 709.4203505428948 333.75646957376966Q714.9121417668412 331.3156734742379 720.8615822594497 329.89914002361684Q726.8328155743754 328.50439939531304 731.540065194901 328.50439939531304L731.540065194901 328.50439939531304Q737.3369559312889 328.50439939531304 742.2839265973041 330.61830316008604Q747.2308972633193 332.73220692485904 750.2818923877339 336.8946359874533Q753.3546803344657 341.05706505004764 753.3546803344657 347.159055298877L753.3546803344657 347.159055298877Q753.3546803344657 350.9292135597608 753.202130578245 356.9658253416384Q753.027787999707 363.0242299458332 752.9624095327554 369.84538333113164Q752.8752382434864 376.6665367164302 752.7226884872657 382.79031978757666Q752.5701387310448 388.91410285872325 752.5701387310448 392.6624682972898L752.5701387310448 392.6624682972898Q752.5701387310448 397.69661025257403 756.9504960168117 397.69661025257403L756.9504960168117 397.69661025257403Q759.7835629180538 397.69661025257403 765.5804536544417 395.80063471097355L765.5804536544417 395.80063471097355Q766.2124455016419 396.5851763143944 766.4521665471316 397.54406049635327Q766.6918875926212 398.481151855995 766.8444373488421 399.26569345941584L766.8444373488421 399.26569345941584Q762.9217293317374 403.49350098896196 758.6067505129224 405.38947653056243Q754.2917716941074 407.2636592498458 749.8896215860234 407.2636592498458ZM736.8793066626267 392.6624682972898L736.8793066626267 392.6624682972898L737.184406175068 369.12622019466244Q722.7575578010501 371.02219573626303 717.3311450440556 375.250003265809Q711.9265251093782 379.4996036176724 711.9265251093782 386.08103595748105L711.9265251093782 386.08103595748105Q711.9265251093782 391.57282718142744 714.8249704775722 394.4712725496214Q717.7234158457661 397.36971791781536 722.1255659538499 397.36971791781536L722.1255659538499 397.36971791781536Q724.9586328550922 397.36971791781536 728.4890700704864 396.1275270457322Q732.0195072858803 394.8635433513318 736.8793066626267 392.6624682972898ZM820.4983658939057 405.8471257992246L820.4983658939057 405.8471257992246Q820.1932663814641 403.3409512327412 820.4983658939057 400.9873264224784L820.4983658939057 400.9873264224784Q825.379958092969 400.682226910037 827.7335829032318 399.9630637735678Q830.0872077134945 399.26569345941584 830.8717493169154 396.9120686491532Q831.6562909203362 394.5584438388904 831.6562909203362 389.37175212738543L831.6562909203362 389.37175212738543L831.6562909203362 357.68498847810747Q831.6562909203362 348.2704892370565 828.7360527298251 343.6286180834828Q825.8376073616312 339.0085397522263 817.2076497240012 339.0085397522263L817.2076497240012 339.0085397522263Q812.6529498596965 339.0085397522263 808.4251423301505 340.6647942483371Q804.1973348006043 342.29925592213067 799.1631928453203 346.85395578643545L799.1631928453203 346.85395578643545L799.1631928453203 387.8026689205436Q799.1631928453203 393.9264519916902 799.8823559817893 396.5851763143944Q800.5797262959413 399.26569345941584 802.9333511062041 399.9630637735678Q805.2869759164666 400.682226910037 810.2993250494337 400.9873264224784L810.2993250494337 400.9873264224784Q810.6262173841924 403.3409512327412 810.2993250494337 405.8471257992246L810.2993250494337 405.8471257992246Q805.9189677636668 405.8471257992246 801.1245468538725 405.69457604300396Q796.3519187663953 405.5420262867832 790.8601275424489 405.5420262867832L790.8601275424489 405.5420262867832Q785.8259855871647 405.5420262867832 780.9661862104185 405.69457604300396Q776.1063868336723 405.8471257992246 771.3991372131468 405.8471257992246L771.3991372131468 405.8471257992246Q770.9196951221672 403.3409512327412 771.3991372131468 400.9873264224784L771.3991372131468 400.9873264224784Q776.7383786808723 400.682226910037 779.244553247356 399.9630637735678Q781.7507278138394 399.26569345941584 782.5352694172602 396.9120686491532Q783.3198110206813 394.5584438388904 783.3198110206813 389.37175212738543L783.3198110206813 389.37175212738543L783.3198110206813 354.2199297296652Q783.3198110206813 348.11793948083584 782.7749904627501 345.1323228233729Q782.2301699048189 342.14670616591 779.7893738052871 340.96989376077863Q777.3485777057554 339.79308135564725 771.5516869693674 339.0085397522263L771.5516869693674 339.0085397522263Q771.0722448783881 336.8074646981843 771.5516869693674 334.93328197890105L771.5516869693674 334.93328197890105Q785.0414439837436 332.2527648338796 796.3519187663953 327.7198577918921L796.3519187663953 327.7198577918921L799.0106430890994 328.6569491515337L799.0106430890994 340.42507320284744Q806.2240672761084 333.8218480407214 813.1323919506758 331.16312371801723Q820.0407166252435 328.50439939531304 826.3170494526107 328.50439939531304L826.3170494526107 328.50439939531304Q836.6686400533033 328.50439939531304 842.1604312772497 334.6063896441424Q847.6522225011961 340.73017271528886 847.6522225011961 352.1931972541611L847.6522225011961 352.1931972541611L847.6522225011961 387.8026689205436Q847.6522225011961 393.9264519916902 848.3495928153479 396.5851763143944Q849.0687559518171 399.26569345941584 851.4223807620799 399.9630637735678Q853.7760055723427 400.682226910037 858.9409044615302 400.9873264224784L858.9409044615302 400.9873264224784Q859.2677967962891 403.3409512327412 858.9409044615302 405.8471257992246L858.9409044615302 405.8471257992246Q854.2336548410049 405.8471257992246 849.766126265969 405.69457604300396Q845.2985976909333 405.5420262867832 839.3273643760074 405.5420262867832L839.3273643760074 405.5420262867832Q833.5304736396197 405.5420262867832 829.2154948208047 405.69457604300396Q824.9005160019897 405.8471257992246 820.4983658939057 405.8471257992246ZM896.7732440042721 445.7061978174704L896.7732440042721 445.7061978174704Q882.9565946551372 445.7061978174704 874.4791867737279 440.8463984407242Q866.0017788923185 435.986599063978 866.0017788923185 427.356641426348L866.0017788923185 427.356641426348Q866.0017788923185 420.6008665080012 870.709028512844 416.1987163999172Q875.4162781333694 411.81835911415044 882.324602807937 407.4162090060664L882.324602807937 407.4162090060664Q876.2008197367904 405.9996755554454 873.0626533231068 402.46923834005133Q869.924486909423 398.9388011246572 869.924486909423 394.079001747911L869.924486909423 394.079001747911Q869.924486909423 385.6015938665016 882.324602807937 376.9716362288716L882.324602807937 376.9716362288716Q877.1597039187493 373.6809200589672 874.0215375050657 368.4288498805106Q870.8833710913818 363.17677970205386 870.8833710913818 356.2684550274864L870.8833710913818 356.2684550274864Q870.8833710913818 347.6384973898564 875.3508996664177 341.44933585175806Q879.8184282414534 335.23838149134247 887.1190237177314 331.8604940321691Q894.4196191940093 328.50439939531304 902.7226844968807 328.50439939531304L902.7226844968807 328.50439939531304Q914.9702506391739 328.50439939531304 923.1207661858243 335.23838149134247L923.1207661858243 335.23838149134247Q931.5981740672337 328.50439939531304 939.7486896138844 328.50439939531304L939.7486896138844 328.50439939531304Q943.8457402095269 328.50439939531304 946.1993650197896 330.29141082532726Q948.5529898300522 332.10021507765885 948.5529898300522 335.56527382610125L948.5529898300522 335.56527382610125Q948.5529898300522 339.0085397522263 946.3519147760103 341.05706505004764Q944.1508397219682 343.08379752555163 941.0126733082845 343.08379752555163L941.0126733082845 343.08379752555163Q938.0270566508218 343.08379752555163 935.9131528860487 341.27499327322005Q933.7992491212756 339.48798184320583 933.1672572740754 336.1754728509842L933.1672572740754 336.1754728509842Q930.9661822200335 336.6549149419636 929.6368200586815 337.2869067891638Q928.3074578973294 337.9188986363639 926.5858249342668 339.0085397522263L926.5858249342668 339.0085397522263Q931.9032735796752 345.76431467057307 931.9032735796752 355.00447133308603L931.9032735796752 355.00447133308603Q931.9032735796752 363.63442897071604 927.6754660501292 369.6928335749109Q923.447658520583 375.72944535678846 916.4521625567465 378.93299023742384Q909.4784594152275 382.1583279403766 901.1536012900388 382.1583279403766L901.1536012900388 382.1583279403766Q893.3081852558298 382.1583279403766 886.5742031598002 379.3252610391344L886.5742031598002 379.3252610391344Q882.6514951426957 383.24796905623896 882.6514951426957 387.650119164323L882.6514951426957 387.650119164323Q882.6514951426957 391.57282718142744 885.6153189778413 392.59708983033806Q888.6009356353043 393.6213524792488 896.5989014257341 393.6213524792488L896.5989014257341 393.6213524792488Q900.2165099303973 393.6213524792488 905.2288590633641 393.5341811899798Q910.2630010186483 393.4470099007108 912.6166258289111 393.4470099007108L912.6166258289111 393.4470099007108Q928.3074578973294 393.4470099007108 935.2157825718969 399.0259724139262Q942.1023144241469 404.6049349271416 942.1023144241469 414.324533680634L942.1023144241469 414.324533680634Q942.1023144241469 422.0173999586224 938.3539489855805 427.9014619842792Q934.5837907246967 433.785524009936 928.1549081411085 437.77361049399235Q921.7042327352033 441.78348980036594 913.6408884778216 443.7448438089182Q905.5557513981228 445.7061978174704 896.7732440042721 445.7061978174704ZM889.0803777262836 408.2007506094874L889.0803777262836 408.2007506094874Q880.6029698448745 415.2616250402756 880.6029698448745 423.10704107448475L880.6029698448745 423.10704107448475Q880.6029698448745 428.59883229843115 883.8936860147787 432.06389104687344Q887.1844021846832 435.5071569729986 892.5236436524087 437.0762401798404Q897.8628851201345 438.6453233866822 903.8341184350602 438.6453233866822L903.8341184350602 438.6453233866822Q909.1515670804688 438.6453233866822 914.9702506391739 437.0762401798404Q920.7671413755616 435.5071569729986 924.8423991488869 431.497277666625Q928.9394497445296 427.50919118256877 928.9394497445296 420.2957669955598L928.9394497445296 420.2957669955598Q928.9394497445296 413.6925418334338 924.2975785909557 410.8812677545088Q919.6775002596992 408.0482008532666 907.1248346049647 408.0482008532666L907.1248346049647 408.0482008532666Q904.1392179475017 408.0482008532666 899.7370678394177 408.13537214253563Q895.356710553651 408.2007506094874 890.0174690859253 408.2007506094874L890.0174690859253 408.2007506094874Q889.538026994946 408.2007506094874 889.0803777262836 408.2007506094874ZM901.4804936247976 376.6665367164302L901.4804936247976 376.6665367164302Q908.3670254770477 376.6665367164302 912.0718052709799 371.0875742032148Q915.7547922425947 365.53040451231664 915.7547922425947 355.6364631802862L915.7547922425947 355.6364631802862Q915.7547922425947 345.58997209203505 911.9846339817109 339.79308135564725Q908.2144757208271 333.99619061925944 901.0010515338181 333.99619061925944L901.0010515338181 333.99619061925944Q894.2452766154713 333.99619061925944 890.5622896438565 339.4008105539368Q886.8793026722417 344.8054304886142 886.8793026722417 354.6993718206446L886.8793026722417 354.6993718206446Q886.8793026722417 364.7458629088957 890.7148394000772 370.69530340150436Q894.57216895023 376.6665367164302 901.4804936247976 376.6665367164302ZM983.2253701367931 407.5687587622872L983.2253701367931 407.5687587622872Q973.0263292923214 407.5687587622872 967.447366779106 401.5321469804096Q961.8901970882077 395.495535198532 961.8901970882077 384.0325106596598L961.8901970882077 384.0325106596598L961.8901970882077 352.34574701038184Q961.8901970882077 346.22196393923525 961.3235837079594 343.2363472817724Q960.7787631500282 340.2725234466267 958.3597598728136 339.0085397522263Q955.918963773282 337.744556057826 950.1220730368941 336.96001445440504L950.1220730368941 336.96001445440504Q949.3375314334733 334.93328197890105 950.1220730368941 333.03730643730046L950.1220730368941 333.03730643730046Q956.8560551329235 332.10021507765885 963.0670094933391 331.01057396179647Q969.2561710314376 329.89914002361684 975.5325038588048 328.330056816775L975.5325038588048 328.330056816775L977.8861286690676 329.44149075495466Q977.7335789128467 334.30129013170085 977.6464076235777 338.61626895051586Q977.5810291566261 342.93124776933087 977.5810291566261 346.7014060302147L977.5810291566261 346.7014060302147L977.5810291566261 378.38816967949265Q977.5810291566261 387.8026689205436 980.47947452482 392.4445400741174Q983.377919893014 397.06461840537384 991.8553277744234 397.06461840537384L991.8553277744234 397.06461840537384Q996.5625773949487 397.06461840537384 1000.725006457543 394.95071464060084Q1004.86564269782 392.83681087582784 1008.6358009587038 388.73976028018535L1008.6358009587038 388.73976028018535L1008.6358009587038 352.34574701038184Q1008.6358009587038 346.22196393923525 1008.0909804007727 343.2363472817724Q1007.5461598428415 340.2725234466267 1005.1053637433097 339.0085397522263Q1002.6863604660953 337.744556057826 996.8676769073902 336.96001445440504L996.8676769073902 336.96001445440504Q996.410027638728 334.93328197890105 996.8676769073902 333.03730643730046L996.8676769073902 333.03730643730046Q1003.623451825737 332.10021507765885 1009.8126133638352 331.01057396179647Q1016.0235677242508 329.89914002361684 1022.4524503078387 328.330056816775L1022.4524503078387 328.330056816775L1024.8060751181015 329.44149075495466Q1024.6535253618808 334.30129013170085 1024.5663540726118 338.61626895051586Q1024.4791827833428 342.93124776933087 1024.4791827833428 346.7014060302147L1024.4791827833428 346.7014060302147L1024.4791827833428 387.34501965188144Q1024.4791827833428 392.0522692724069 1025.0457961635911 394.40589408266965Q1025.5906167215226 396.7595188929324 1028.183962577275 397.7619887195258Q1030.75551561071 398.7862513684364 1036.726748925636 399.4182432156366L1036.726748925636 399.4182432156366Q1036.8792986818567 401.29242593491983 1036.726748925636 403.3409512327412L1036.726748925636 403.3409512327412Q1029.9709740072894 403.9729430799414 1023.86898375846 404.910034439583Q1017.7452006873134 405.8471257992246 1011.9265171286083 407.2636592498458L1011.9265171286083 407.2636592498458L1009.4203425621247 406.1740181339834L1009.1152430496834 395.1904356860906Q996.0831353039694 407.5687587622872 983.2253701367931 407.5687587622872ZM1099.3375274430882 407.2636592498458L1099.3375274430882 407.2636592498458Q1088.9859368423959 407.2636592498458 1086.3054196973744 396.9120686491532L1086.3054196973744 396.9120686491532Q1075.169287493261 407.5687587622872 1063.5537131981678 407.5687587622872L1063.5537131981678 407.5687587622872Q1055.5557474077382 407.5687587622872 1049.9767848945226 402.79613067481Q1044.4196152036243 398.00170976501556 1044.4196152036243 389.5243018836062L1044.4196152036243 389.5243018836062Q1044.4196152036243 368.821120682221 1086.632312032133 363.4818792144954L1086.632312032133 363.4818792144954Q1086.632312032133 359.7117209536116 1086.6976904990847 355.789012936507Q1086.7848617883537 351.8663049194024 1086.7848617883537 347.48594763363565L1086.7848617883537 347.48594763363565Q1086.7848617883537 341.99415640968925 1082.7749824819803 338.9213684629574Q1078.7868959979237 335.87037333854266 1073.1207621954395 335.87037333854266L1073.1207621954395 335.87037333854266Q1069.0455044221144 335.87037333854266 1066.2342303431892 337.13435703294306L1066.2342303431892 337.13435703294306Q1066.2342303431892 340.73017271528886 1064.6651471363475 344.5003309761727Q1063.0960639295058 348.2704892370565 1060.3501683175323 350.86383509280904Q1057.6042727055592 353.4353881262442 1053.6815646884547 353.4353881262442L1053.6815646884547 353.4353881262442Q1050.2165059400122 353.4353881262442 1048.2551519314602 351.474034117692Q1046.2937979229077 349.51268010913964 1046.2937979229077 346.7014060302147L1046.2937979229077 346.7014060302147Q1046.2937979229077 342.93124776933087 1049.824235138302 339.5533603101575Q1053.354672353696 336.1754728509842 1058.8464635776422 333.75646957376966Q1064.3382548015888 331.3156734742379 1070.3094881165148 329.89914002361684Q1076.2589286091234 328.50439939531304 1080.9661782296484 328.50439939531304L1080.9661782296484 328.50439939531304Q1086.7848617883537 328.50439939531304 1091.731832454369 330.61830316008604Q1096.6570102980668 332.73220692485904 1099.729798244799 336.8946359874533Q1102.7807933692134 341.05706505004764 1102.7807933692134 347.159055298877L1102.7807933692134 347.159055298877Q1102.7807933692134 350.9292135597608 1102.6282436129927 356.9658253416384Q1102.475693856772 363.0242299458332 1102.388522567503 369.84538333113164Q1102.3231441005514 376.6665367164302 1102.1488015220134 382.79031978757666Q1101.9962517657927 388.91410285872325 1101.9962517657927 392.6624682972898L1101.9962517657927 392.6624682972898Q1101.9962517657927 397.69661025257403 1106.3984018738765 397.69661025257403L1106.3984018738765 397.69661025257403Q1109.2096759528013 397.69661025257403 1115.0283595115066 395.80063471097355L1115.0283595115066 395.80063471097355Q1115.660351358707 396.5851763143944 1115.8782795818793 397.54406049635327Q1116.118000627369 398.481151855995 1116.2705503835896 399.26569345941584L1116.2705503835896 399.26569345941584Q1112.347842366485 403.49350098896196 1108.0328635476703 405.38947653056243Q1103.717884728855 407.2636592498458 1099.3375274430882 407.2636592498458ZM1086.3054196973744 392.6624682972898L1086.3054196973744 392.6624682972898L1086.632312032133 369.12622019466244Q1072.1836708357978 371.02219573626303 1066.7790509011206 375.250003265809Q1061.3526381441256 379.4996036176724 1061.3526381441256 386.08103595748105L1061.3526381441256 386.08103595748105Q1061.3526381441256 391.57282718142744 1064.2728763346372 394.4712725496214Q1067.171321702831 397.36971791781536 1071.5516789885978 397.36971791781536L1071.5516789885978 397.36971791781536Q1074.38474588984 397.36971791781536 1077.915183105234 396.1275270457322Q1081.4456203206282 394.8635433513318 1086.3054196973744 392.6624682972898ZM1151.5749225375307 445.7061978174704L1151.5749225375307 445.7061978174704Q1137.7800660107132 445.7061978174704 1129.3026581293038 440.8463984407242Q1120.8252502478945 435.986599063978 1120.8252502478945 427.356641426348L1120.8252502478945 427.356641426348Q1120.8252502478945 420.6008665080012 1125.53249986842 416.1987163999172Q1130.2397494889456 411.81835911415044 1137.1480741635128 407.4162090060664L1137.1480741635128 407.4162090060664Q1131.0242910923662 405.9996755554454 1127.8861246786828 402.46923834005133Q1124.747958264999 398.9388011246572 1124.747958264999 394.079001747911L1124.747958264999 394.079001747911Q1124.747958264999 385.6015938665016 1137.1480741635128 376.9716362288716L1137.1480741635128 376.9716362288716Q1131.961382452008 373.6809200589672 1128.823216038324 368.4288498805106Q1125.6850496246407 363.17677970205386 1125.6850496246407 356.2684550274864L1125.6850496246407 356.2684550274864Q1125.6850496246407 347.6384973898564 1130.1743710219935 341.44933585175806Q1134.6418995970294 335.23838149134247 1141.9424950733073 331.8604940321691Q1149.221297727268 328.50439939531304 1157.5461558524566 328.50439939531304L1157.5461558524566 328.50439939531304Q1169.7937219947498 328.50439939531304 1177.9442375414005 335.23838149134247L1177.9442375414005 335.23838149134247Q1186.4216454228094 328.50439939531304 1194.5721609694601 328.50439939531304L1194.5721609694601 328.50439939531304Q1198.6474187427852 328.50439939531304 1201.001043553048 330.29141082532726Q1203.3546683633108 332.10021507765885 1203.3546683633108 335.56527382610125L1203.3546683633108 335.56527382610125Q1203.3546683633108 339.0085397522263 1201.1753861315865 341.05706505004764Q1198.9743110775444 343.08379752555163 1195.8361446638605 343.08379752555163L1195.8361446638605 343.08379752555163Q1192.8505280063978 343.08379752555163 1190.7366242416247 341.27499327322005Q1188.6227204768516 339.48798184320583 1187.9907286296516 336.1754728509842L1187.9907286296516 336.1754728509842Q1185.7896535756095 336.6549149419636 1184.4602914142574 337.2869067891638Q1183.1309292529054 337.9188986363639 1181.3875034675252 339.0085397522263L1181.3875034675252 339.0085397522263Q1186.7267449352512 345.76431467057307 1186.7267449352512 355.00447133308603L1186.7267449352512 355.00447133308603Q1186.7267449352512 363.63442897071604 1182.498937405705 369.6928335749109Q1178.2493370538418 375.72944535678846 1171.2756339123225 378.93299023742384Q1164.3019307708032 382.1583279403766 1155.977072645615 382.1583279403766L1155.977072645615 382.1583279403766Q1148.1316566114056 382.1583279403766 1141.375881693059 379.3252610391344L1141.375881693059 379.3252610391344Q1137.4531736759545 383.24796905623896 1137.4531736759545 387.650119164323L1137.4531736759545 387.650119164323Q1137.4531736759545 391.57282718142744 1140.4387903334173 392.59708983033806Q1143.42440699088 393.6213524792488 1151.42237278131 393.6213524792488L1151.42237278131 393.6213524792488Q1155.0399812859732 393.6213524792488 1160.05233041894 393.5341811899798Q1165.0864723742243 393.4470099007108 1167.440097184487 393.4470099007108L1167.440097184487 393.4470099007108Q1183.1309292529054 393.4470099007108 1190.0174611051557 399.0259724139262Q1196.925785779723 404.6049349271416 1196.925785779723 414.324533680634L1196.925785779723 414.324533680634Q1196.925785779723 422.0173999586224 1193.155627518839 427.9014619842792Q1189.4072620802726 433.785524009936 1182.9565866743674 437.77361049399235Q1176.5277040907795 441.78348980036594 1168.4425670110804 443.7448438089182Q1160.3792227536987 445.7061978174704 1151.5749225375307 445.7061978174704ZM1143.9038490818598 408.2007506094874L1143.9038490818598 408.2007506094874Q1135.4264412004504 415.2616250402756 1135.4264412004504 423.10704107448475L1135.4264412004504 423.10704107448475Q1135.4264412004504 428.59883229843115 1138.717157370355 432.06389104687344Q1142.007873540259 435.5071569729986 1147.347115007985 437.0762401798404Q1152.6863564757105 438.6453233866822 1158.635796968319 438.6453233866822L1158.635796968319 438.6453233866822Q1163.9750384360445 438.6453233866822 1169.7937219947498 437.0762401798404Q1175.5906127311378 435.5071569729986 1179.6658705044629 431.497277666625Q1183.741128277788 427.50919118256877 1183.741128277788 420.2957669955598L1183.741128277788 420.2957669955598Q1183.741128277788 413.6925418334338 1179.121049946532 410.8812677545088Q1174.5009716152754 408.0482008532666 1161.9483059605404 408.0482008532666L1161.9483059605404 408.0482008532666Q1158.9626893030777 408.0482008532666 1154.560539194994 408.13537214253563Q1150.180181909227 408.2007506094874 1144.840940441501 408.2007506094874L1144.840940441501 408.2007506094874Q1144.3614983505217 408.2007506094874 1143.9038490818598 408.2007506094874ZM1156.2821721580563 376.6665367164302L1156.2821721580563 376.6665367164302Q1163.190496832624 376.6665367164302 1166.8734838042387 371.0875742032148Q1170.5782635981705 365.53040451231664 1170.5782635981705 355.6364631802862L1170.5782635981705 355.6364631802862Q1170.5782635981705 345.58997209203505 1166.8081053372866 339.79308135564725Q1163.0379470764028 333.99619061925944 1155.8245228893943 333.99619061925944L1155.8245228893943 333.99619061925944Q1149.0687479710473 333.99619061925944 1145.3857609994325 339.4008105539368Q1141.7027740278177 344.8054304886142 1141.7027740278177 354.6993718206446L1141.7027740278177 354.6993718206446Q1141.7027740278177 364.7458629088957 1145.5383107556531 370.69530340150436Q1149.395640305806 376.6665367164302 1156.2821721580563 376.6665367164302ZM1241.6446571747151 407.5687587622872L1241.6446571747151 407.5687587622872Q1230.5085249706017 407.5687587622872 1222.8156586926134 402.4038598730996Q1215.1227924146247 397.2171681615946 1211.1347059305685 388.52183205701283Q1207.124826624195 379.8047031301138 1207.124826624195 369.30056277320045L1207.124826624195 369.30056277320045Q1207.124826624195 358.46953008152843 1211.2872556867892 349.2075805966982Q1215.4496847493838 339.945631111868 1223.4476505398134 334.21411884243184Q1231.4456163302434 328.50439939531304 1242.9086408691155 328.50439939531304L1242.9086408691155 328.50439939531304Q1256.703497395933 328.50439939531304 1264.4835349631908 336.74208623123263Q1272.2417797081307 344.9797730671522 1272.2417797081307 357.990087990549L1272.2417797081307 357.990087990549Q1272.2417797081307 359.5591711973908 1272.176401241179 360.7359836025222Q1272.08922995191 361.9127960076536 1271.9366801956894 362.69733761107443L1271.9366801956894 362.69733761107443L1222.5105591801716 362.23968834241225Q1222.5105591801716 362.8498873672952 1222.5105591801716 363.32932945827463L1222.5105591801716 363.32932945827463Q1222.5105591801716 378.71506201425143 1229.57143361096 387.4975694081022Q1236.6323080417483 396.280076801953 1249.3375234527034 396.280076801953L1249.3375234527034 396.280076801953Q1260.016006388155 396.280076801953 1270.3675969888473 389.37175212738543L1270.3675969888473 389.37175212738543Q1271.9366801956894 391.267727668986 1272.72122179911 392.9893606320486L1272.72122179911 392.9893606320486Q1259.3840145409545 407.5687587622872 1241.6446571747151 407.5687587622872ZM1222.968208448834 356.4210047837072L1222.968208448834 356.4210047837072L1255.46130652385 355.789012936507Q1255.6138562800706 355.48391342406546 1255.6138562800706 354.9390928661343Q1255.6138562800706 354.3942723082031 1255.6138562800706 354.2199297296652L1255.6138562800706 354.2199297296652Q1255.6138562800706 345.76431467057307 1251.9308693084558 340.09818086808866Q1248.247882336841 334.4538398879216 1241.0126653275147 334.4538398879216L1241.0126653275147 334.4538398879216Q1234.2786832314855 334.4538398879216 1229.2445412762013 339.945631111868Q1224.2321921432344 345.4374223358144 1222.968208448834 356.4210047837072Z " fill="#3c1a5b" transform="matrix(0.6875032520448019,0,0,0.6875032520448019,0,45.13827355499268)"/></g></svg>